<!-- Generator: Adobe Illustrator 19.1.0, SVG Export Plug-In  -->
<svg version="1.1"
	 xmlns="http://www.w3.org/2000/svg" xmlns:xlink="http://www.w3.org/1999/xlink" xmlns:a="http://ns.adobe.com/AdobeSVGViewerExtensions/3.0/"
	 x="0px" y="0px" width="118.667px" height="118.659px" viewBox="0 0 118.667 118.659"
	 style="enable-background:new 0 0 118.667 118.659;" xml:space="preserve">
<style type="text/css">
	.st0{fill-rule:evenodd;clip-rule:evenodd;fill:#999999;}
</style>
<defs>
</defs>
<g>
	<path class="st0" d="M118.667,59.33C118.667,26.567,92.091,0,59.333,0C26.569,0,0,26.567,0,59.33
		c0,32.756,26.569,59.33,59.333,59.33C92.091,118.659,118.667,92.085,118.667,59.33L118.667,59.33z M5.4,59.33
		C5.4,29.547,29.549,5.4,59.333,5.4s53.934,24.147,53.934,53.93s-24.149,53.93-53.934,53.93S5.4,89.113,5.4,59.33L5.4,59.33z
		 M5.4,59.33"/>
	<path class="st0" d="M61.599,93.562V59.33h11.292l1.793-11.352H61.599v-5.689c0-2.973,0.971-5.791,5.211-5.791h8.508V25.172H63.257
		c-10.139,0-12.904,6.694-12.904,15.936v6.869h-6.951V59.33h6.951v34.232H61.599z M61.599,93.562"/>
</g>
</svg>